<svg width="812" height="334" viewBox="0 0 812 334" fill="none" xmlns="http://www.w3.org/2000/svg">
<path d="M0.478882 216V0.473121H22.3969V216H0.478882ZM55.2739 216V0.473121H66.2328V216H55.2739ZM99.1098 216V0.473121H110.069V216H99.1098ZM37.7395 324.494H54.5432V255.818H38.8354V247.781H80.8448V255.818H64.041V324.494H81.5754V332.531H37.7395V324.494ZM121.056 216V0.473121H132.015V216H121.056ZM142.974 216V0.473121H175.851V216H142.974ZM186.81 216V0.473121H208.728V216H186.81ZM152.837 247.781H160.509L181.331 289.425L202.518 247.781H209.824V332.531H200.692V268.603L182.427 302.941H178.774L161.605 268.968V332.531H152.837V247.781ZM241.634 216V0.473121H274.511V216H241.634ZM285.47 216V0.473121H318.347V216H285.47ZM329.306 216V0.473121H351.224V216H329.306ZM275.972 247.781H303.004C312.015 247.781 318.712 250.095 323.096 254.722C327.723 259.105 330.036 264.828 330.036 271.891C330.036 278.71 327.845 284.311 323.461 288.695C319.077 293.078 312.502 295.27 303.735 295.27H285.835V332.531H275.972V247.781ZM302.639 286.868C308.727 286.868 313.111 285.529 315.79 282.85C318.712 280.415 320.173 276.883 320.173 272.256C320.173 267.629 318.712 263.976 315.79 261.297C312.867 258.375 308.605 256.914 303.004 256.914H285.835V286.868H302.639ZM362.211 216V0.473121H384.129V216H362.211ZM395.088 216V0.473121H427.965V216H395.088ZM438.924 216V0.473121H471.801V216H438.924ZM422.486 333.992C413.719 333.992 407.021 331.313 402.394 325.955C397.767 320.598 395.454 313.048 395.454 303.307V247.781H406.047V248.877C405.317 249.364 404.951 249.973 404.951 250.703C404.708 251.191 404.586 252.286 404.586 253.991V303.307C404.586 310.613 406.047 316.214 408.97 320.11C411.649 324.007 416.276 325.955 422.851 325.955C429.183 325.955 433.81 324.007 436.732 320.11C439.655 316.214 441.116 310.491 441.116 302.941V247.781H450.249V302.941C450.249 313.413 447.813 321.206 442.943 326.321C438.072 331.435 431.253 333.992 422.486 333.992ZM482.789 216V0.473121H493.748V216H482.789ZM526.625 216V0.473121H548.543V216H526.625ZM559.502 216V0.473121H592.379V216H559.502ZM518.223 247.781H529.182V248.877C528.695 249.364 528.329 249.973 528.086 250.703C528.086 251.191 528.086 252.286 528.086 253.991V324.494H568.634V332.531H518.223V247.781ZM603.366 216V0.473121H625.284V216H603.366ZM636.243 216V0.473121H669.12V216H636.243ZM680.079 216V0.473121H691.038V216H680.079ZM663.275 333.992C652.316 333.992 643.427 330.339 636.608 323.033L641.723 314.631L642.088 313.535L643.184 313.9C643.184 314.144 643.306 314.631 643.549 315.362C643.549 315.849 643.793 316.457 644.28 317.188C644.523 317.675 645.01 318.162 645.741 318.649C650.855 323.033 657.187 325.225 664.737 325.225C669.607 325.225 673.747 323.885 677.157 321.206C680.566 318.284 682.271 314.874 682.271 310.978C682.271 308.299 681.662 305.986 680.444 304.037C679.47 302.333 677.644 300.628 674.965 298.923C672.286 297.218 668.146 295.148 662.545 292.713C654.265 289.547 648.298 285.894 644.645 281.754C641.236 277.614 639.531 272.987 639.531 267.873C639.531 261.541 641.844 256.427 646.472 252.53C651.099 248.633 657.309 246.685 665.102 246.685C669.729 246.685 674.113 247.659 678.253 249.608C682.149 251.556 685.68 254.113 688.846 257.279L682.636 265.681L681.906 264.95C681.906 264.707 681.784 264.341 681.54 263.854C681.54 263.124 681.297 262.515 680.81 262.028C680.566 261.297 680.079 260.688 679.349 260.201C677.4 258.253 675.087 256.792 672.408 255.818C669.973 255.087 667.05 254.722 663.641 254.722C659.257 254.722 655.848 255.939 653.412 258.375C650.733 260.81 649.394 263.733 649.394 267.142C649.394 269.821 649.881 272.134 650.855 274.083C652.073 276.031 654.143 277.857 657.065 279.562C659.988 281.51 664.371 283.58 670.216 285.772C678.253 289.182 683.854 292.591 687.02 296.001C689.942 299.654 691.403 304.159 691.403 309.517C691.403 313.657 690.429 317.553 688.481 321.206C686.289 324.859 683.123 327.904 678.983 330.339C674.6 332.774 669.364 333.992 663.275 333.992ZM723.944 216V0.473121H734.903V216H723.944ZM767.78 216V0.473121H789.698V216H767.78ZM800.657 216V0.473121H811.616V216H800.657ZM758.282 247.781H810.154V256.183H767.049V283.946H802.848V292.713H767.049V324.129H809.789V332.531H758.282V247.781Z" fill="white"/>
</svg>
